<?xml version="1.0" encoding="UTF-8" standalone="no"?>
<svg
   xmlns:dc="http://purl.org/dc/elements/1.1/"
   xmlns:cc="http://creativecommons.org/ns#"
   xmlns:rdf="http://www.w3.org/1999/02/22-rdf-syntax-ns#"
   xmlns:svg="http://www.w3.org/2000/svg"
   xmlns="http://www.w3.org/2000/svg"
   viewBox="0 0 1333.3333 1333.3333"
   height="1333.3333"
   width="1333.3333"
   xml:space="preserve"
   id="svg2"
   version="1.1"><metadata
     id="metadata8"><rdf:RDF><cc:Work
         rdf:about=""><dc:format>image/svg+xml</dc:format><dc:type
           rdf:resource="http://purl.org/dc/dcmitype/StillImage" /></cc:Work></rdf:RDF></metadata><defs
     id="defs6"><clipPath
       id="clipPath18"
       clipPathUnits="userSpaceOnUse"><path
         id="path16"
         d="M 0,1000 H 1000 V 0 H 0 Z" /></clipPath></defs><g
     transform="matrix(1.3333333,0,0,-1.3333333,0,1333.3333)"
     id="g10"><g
       id="g12"><g
         clip-path="url(#clipPath18)"
         id="g14"><g
           transform="translate(558.0937,538.8228)"
           id="g20"><path
             id="path22"
             style="fill:#231f20;fill-opacity:1;fill-rule:nonzero;stroke:none"
             d="m 0,0 c -2.231,1.531 -4.451,3.079 -6.89,4.768 1.257,1.315 2.044,2.132 2.824,2.956 13.644,14.435 18.137,31.098 10.031,49.551 -3.676,8.369 -8.762,14.749 -15.096,19.237 -7.719,5.468 -17.294,8.122 -28.457,8.094 -30.868,-0.077 -61.736,-0.03 -92.604,-0.036 -3.339,0 -6.679,0 -10.499,0 V 28.765 14.983 -9.167 -18.293 l 13.684,13.685 v 9.126 l 0.009,0.008 v 3.395 9.522 24.593 c 0,9.437 0,18.916 0,28.833 29.766,0 58.303,0.003 86.841,-0.007 1.808,0 3.626,0.036 5.429,-0.058 0.476,-0.026 0.951,-0.054 1.423,-0.101 5.263,-0.53 9.982,-2.045 14.002,-4.364 3.251,-1.875 6.042,-4.278 8.289,-7.116 2.813,-3.554 4.77,-7.788 5.706,-12.522 0.408,-2.056 0.624,-4.205 0.63,-6.436 C -4.63,23.203 -15.309,12.117 -32.806,9.662 h -6.575 l -73.899,-73.9 v -1.206 -12.521 h 3.609 77.156 c 1.693,0 3.352,0.137 4.973,0.395 15.028,2.392 26.553,15.439 26.553,31.13 0,15.901 -11.835,29.082 -27.157,31.216 l -10.265,-10.265 8.561,-2.137 3.863,-0.965 c 7.273,-2.668 12.476,-9.662 12.476,-17.849 0,-10.478 -8.525,-19.004 -19.004,-19.004 h -25.132 -35.54 c 0.576,1.097 1.229,2.088 2.04,2.925 4.193,4.323 8.418,8.616 12.655,12.897 l 18.374,18.375 23.504,23.504 3.276,3.277 h 4.246 l 0.003,-0.025 c 2.137,0.278 4.394,0.107 6.799,-0.477 21.826,-5.296 35.511,-25.481 32.854,-48.455 -2.372,-20.514 -21.135,-36.87 -42.756,-36.957 -29.439,-0.12 -58.878,-0.033 -88.317,-0.002 -1.916,0.002 -3.833,0.271 -6.468,0.469 v 34.385 5.009 l 7.782,7.781 3.126,3.126 1.094,1.095 12.522,12.521 44.137,44.137 19.375,19.375 0.027,0.027 2.606,2.606 6.551,6.552 h 0.187 l 12.521,12.522 h -29.26 -9.15 -14.929 -44.513 v -5.635 h -0.074 V 7.424 l 12.522,12.522 v 26.755 h 21.234 22.388 9.185 l -9.185,-9.185 -4.545,-4.545 -16.65,-16.651 -12.237,-12.237 -10.19,-10.189 -12.522,-12.522 -3.902,-3.903 -15.956,-15.955 -6.525,-6.525 v -8.979 -1.725 -2.564 -6.622 -39.234 c 38.155,0 75.274,-0.501 112.371,0.177 24.447,0.449 45.32,18.243 52.186,42.377 C 29.597,-39.095 20.048,-13.753 0,0" /></g><g
           transform="translate(336.9634,379.9287)"
           id="g24"><path
             id="path26"
             style="fill:#231f20;fill-opacity:1;fill-rule:nonzero;stroke:none"
             d="M 0,0 H -10.047 V 10.438 H 0 C 5.157,10.438 7.664,8.737 7.664,5.24 7.664,1.715 5.157,0 0,0 m -10.047,23.606 h 9.044 c 3.248,0 7.121,-0.873 7.121,-5.03 0,-4.158 -3.873,-5.031 -7.121,-5.031 h -9.044 z M 5.845,12.336 c 2.537,1.302 3.924,3.609 3.924,6.574 0,4.959 -3.851,7.804 -10.563,7.804 h -12.904 v -29.82 h 13.74 c 7.27,0 11.273,2.875 11.273,8.095 0,3.711 -1.934,6.295 -5.47,7.347" /></g><g
           transform="translate(367.7661,406.6426)"
           id="g28"><path
             id="path30"
             style="fill:#231f20;fill-opacity:1;fill-rule:nonzero;stroke:none"
             d="M 0,0 -13.633,-29.82 H -9.8 l 3.512,7.817 1.378,3.065 6.594,14.757 6.594,-14.757 1.377,-3.065 3.512,-7.817 h 3.875 L 3.41,0 Z" /></g><g
           transform="translate(413.7734,406.6426)"
           id="g32"><path
             id="path34"
             style="fill:#231f20;fill-opacity:1;fill-rule:nonzero;stroke:none"
             d="M 0,0 H -4.035 L -12.673,-11.765 -21.354,0 h -4.243 l 10.613,-14.492 -11.327,-15.328 h 4.248 l 9.265,12.681 9.306,-12.681 h 4.288 l -11.368,15.411 z" /></g><g
           transform="translate(441.7651,406.6426)"
           id="g36"><path
             id="path38"
             style="fill:#231f20;fill-opacity:1;fill-rule:nonzero;stroke:none"
             d="m 0,0 h -24.218 v -3.232 h 10.283 V -29.82 h 3.652 v 26.588 l 10.283,0 z" /></g><g
           transform="translate(473.7915,396.3311)"
           id="g40"><path
             id="path42"
             style="fill:#231f20;fill-opacity:1;fill-rule:nonzero;stroke:none"
             d="M 0,0 C 0,6.457 -4.574,10.312 -12.235,10.312 H -23.467 V 7.079 h 3.651 7.498 c 5.589,0 8.668,-2.515 8.668,-7.079 0,-4.539 -3.079,-7.038 -8.668,-7.038 h -7.498 -3.651 v -12.471 h 3.651 v 9.28 h 7.581 c 0.783,0 1.489,0.036 2.209,0.11 l 6.677,-9.39 H 0.722 L -6.523,-9.341 C -2.313,-7.843 0,-4.539 0,0" /></g><g
           transform="translate(513.5674,379.9287)"
           id="g44"><path
             id="path46"
             style="fill:#231f20;fill-opacity:1;fill-rule:nonzero;stroke:none"
             d="M 0,0 H -10.047 V 10.438 H 0 C 5.157,10.438 7.664,8.737 7.664,5.24 7.664,1.715 5.157,0 0,0 m -10.047,23.606 h 9.043 c 3.249,0 7.122,-0.873 7.122,-5.03 0,-4.158 -3.873,-5.031 -7.122,-5.031 h -9.043 z M 5.845,12.336 c 2.538,1.302 3.924,3.609 3.924,6.574 0,4.959 -3.851,7.804 -10.564,7.804 h -12.904 v -29.82 h 13.74 c 7.271,0 11.274,2.875 11.274,8.095 0,3.711 -1.935,6.295 -5.47,7.347" /></g><g
           transform="translate(556.3525,389.7256)"
           id="g48"><path
             id="path50"
             style="fill:#231f20;fill-opacity:1;fill-rule:nonzero;stroke:none"
             d="m 0,0 c 0,-6.528 -2.931,-9.838 -8.711,-9.838 -5.75,0 -8.667,3.31 -8.667,9.838 v 16.917 h -3.651 V -0.126 c 0,-8.28 4.49,-13.028 12.318,-13.028 7.803,0 12.277,4.748 12.277,13.028 V 16.917 H 0 Z" /></g><path
           id="path52"
           style="fill:#231f20;fill-opacity:1;fill-rule:nonzero;stroke:none"
           d="m 572.869,376.822 h 3.651 v 29.82 h -3.651 z" /><g
           transform="translate(593.3262,406.6426)"
           id="g54"><path
             id="path56"
             style="fill:#231f20;fill-opacity:1;fill-rule:nonzero;stroke:none"
             d="m 0,0 h -3.65 v -29.82 h 20.039 v 3.232 H 0 Z" /></g><g
           transform="translate(630.5088,380.0547)"
           id="g58"><path
             id="path60"
             style="fill:#231f20;fill-opacity:1;fill-rule:nonzero;stroke:none"
             d="M 0,0 H -8.375 V 23.355 H 0 c 7.484,0 12.514,-4.693 12.514,-11.677 C 12.514,4.692 7.484,0 0,0 M 0.167,26.588 H -12.026 V -3.232 H 0.167 c 9.395,0 15.956,6.13 15.956,14.91 0,8.778 -6.561,14.91 -15.956,14.91" /></g><g
           transform="translate(666.5576,393.2461)"
           id="g62"><path
             id="path64"
             style="fill:#231f20;fill-opacity:1;fill-rule:nonzero;stroke:none"
             d="m 0,0 c -4.206,1.027 -7.841,1.915 -7.841,5.425 0,3.15 2.787,5.031 7.455,5.031 2.678,0 5.549,-0.867 7.875,-2.379 l 0.28,-0.181 1.262,2.98 -0.185,0.129 c -2.375,1.654 -5.826,2.642 -9.232,2.642 -8.157,0 -11.063,-4.291 -11.063,-8.305 0,-6.037 5.433,-7.362 10.228,-8.53 4.18,-1.017 7.789,-1.897 7.789,-5.391 0,-3.071 -2.834,-4.905 -7.581,-4.905 -3.594,0 -7.308,1.363 -9.461,3.473 l -0.271,0.266 -1.475,-2.898 0.137,-0.142 c 2.241,-2.327 6.689,-3.89 11.07,-3.89 8.251,0 11.191,4.269 11.191,8.263 C 10.178,-2.485 4.771,-1.165 0,0" /></g></g></g></g></svg>